<svg xmlns="http://www.w3.org/2000/svg" viewBox="0 0 228 88"><path fill="white" fill-rule="evenodd" d="M167.616 52.106c3.34-.404 6.87-2.077 10.584-5.02 3.715-2.942 5.573-5.942 5.573-9 0-1.096-.49-1.644-1.47-1.644-2.533 0-5.298 1.673-8.293 5.02-2.996 3.346-5.127 6.894-6.394 10.644zm-14.688-27.952c0-1.327.734-2.495 2.203-3.505 1.47-1.01 3.04-1.52 4.71-1.52 2.48 0 3.72 1.06 3.72 3.2 0 1.21-.66 2.38-1.98 3.5-1.32 1.12-2.76 1.69-4.32 1.69-1.21 0-2.23-.29-3.06-.87-.83-.58-1.25-1.42-1.25-2.51zM50.198 60.846c0 1.846.663 2.77 1.988 2.77.748 0 1.54-.217 2.376-.65.835-.432 1.742-1.08 2.72-1.947l2.68-2.6c.864-.87 1.843-1.99 2.937-3.38l2.59-3.29 2.5-3.38 2.07-2.86c.17-.29.4-.44.69-.44h.17l.17.09c.29-.93.43-1.99.43-3.2 0-3-1.21-4.5-3.63-4.5-3.8 0-7.71 2.82-11.71 8.48-4 5.65-6 10.61-6 14.88zm34.206-9.057c2.44-4.49 4.603-9.4 6.49-14.75-.577-.58-.865-1.36-.865-2.34 0-1.5.46-2.92 1.38-4.24.92-1.33 1.81-1.99 2.68-1.99.57 0 1.05.34 1.42 1.03s.56 1.27.56 1.73c0 .23-.16.79-.48 1.69-.32.89-.48 1.4-.48 1.51.06.52.57 1.14 1.55 1.86.98.72 2.04 1.42 3.2 2.12 1.15.69 2.2 1.71 3.15 3.07.95 1.35 1.42 2.87 1.42 4.54 0 1.84-.75 4.38-2.25 7.61-1.5 3.23-2.25 5.31-2.25 6.23 0 1.33.72 1.99 2.16 1.99 2.53 0 5.36-1.43 8.47-4.29 2.02-1.86 3.65-3.7 4.9-5.52.77-3.62 2.07-7.94 3.91-12.96-1.5-.29-2.51-.55-3.03-.78v-2.68c1.38.17 2.77.31 4.15.43 2.59-6.52 5.37-12.12 8.34-16.79 2.96-4.68 5.37-7.01 7.21-7.01.63 0 1.19.23 1.68.69.49.46.73 1.06.73 1.81 0 1.04-.55 2.58-1.64 4.63-1.1 2.05-2.65 4.78-4.67 8.18-2.018 3.404-3.63 6.32-4.84 8.74 6.62 0 11.89-.2 15.81-.605v2.857c-6.857.69-12.64 1.036-17.37 1.036-2.99 7.096-4.49 12.894-4.49 17.394 0 2.37.376 4.04 1.125 5.02.75.98 1.93 1.47 3.54 1.47 2.88 0 5.83-1.31 8.855-3.936 1.98-1.714 3.79-3.83 5.435-6.35.27-1.09.604-2.26 1.005-3.51 1.21-3.78 2.85-7.255 4.924-10.428 2.07-3.178 4.114-4.76 6.13-4.76.75 0 1.37.212 1.86.65.49.43.734 1.05.734 1.86 0 .75-.735 2.32-2.2 4.71-1.47 2.4-2.95 5.11-4.45 8.14-1.5 3.026-2.248 5.636-2.248 7.83 0 1.79.314 3 .95 3.633.63.63 1.61.95 2.94.95 3.34 0 6.67-2.38 9.98-7.143.563-4.58 2.952-9.28 7.17-14.1 4.863-5.57 9.89-8.35 15.072-8.35 4.206 0 6.31 1.93 6.31 5.792 0 4.152-2.25 7.844-6.74 11.075-4.494 3.23-9.505 5.14-15.034 5.71-.11.58-.17 1.24-.17 1.99 0 .58.044 1.13.13 1.65.087.52.317 1.225.69 2.12.376.894 1.067 1.615 2.075 2.163 1.01.55 2.26.825 3.76.825 3.51 0 7.1-1.43 10.757-4.286 2.91-2.277 5.38-5 7.398-8.17 2.4-4.43 4.53-9.28 6.386-14.55-.574-.58-.86-1.357-.86-2.337 0-1.5.46-2.918 1.38-4.24.92-1.33 1.815-1.99 2.68-1.99.58 0 1.05.34 1.43 1.033.372.69.56 1.27.56 1.73 0 .23-.16.794-.476 1.69-.316.89-.474 1.4-.474 1.51.06.52.58 1.14 1.56 1.86.98.72 2.05 1.428 3.2 2.12 1.15.69 2.2 1.717 3.15 3.07.95 1.358 1.43 2.87 1.43 4.545 0 1.84-.75 4.38-2.244 7.61-1.49 3.23-2.24 5.307-2.24 6.23 0 1.327.72 1.99 2.16 1.99 2.535 0 5.357-1.43 8.467-4.286 3.11-2.858 5.95-6.36 7.22-9.13l.74 1.17c-1.69 4.503-3.85 8.71-7.57 11.86-3.71 3.14-7.414 4.71-11.1 4.71-2.13 0-3.86-.566-5.184-1.69-1.326-1.127-1.99-2.64-1.99-4.545 0-1.67.82-4.327 2.46-7.96 1.64-3.636 2.46-6.117 2.46-7.444 0-2.19-1.44-4.04-4.32-5.54-2.242 5.54-4.95 10.935-8.12 16.185l-.03-.052c-1.993 3.08-4.45 5.69-7.354 7.84-4.3 3.18-8.74 4.76-13.35 4.76-3.63 0-6.45-.98-8.47-2.94-1.57-1.527-2.53-3.387-2.88-5.58-.886 1.14-1.828 2.164-2.827 3.07-3.11 2.83-6.45 4.24-10.027 4.24-2.42 0-4.29-.72-5.615-2.16-1.327-1.44-1.99-3.288-1.99-5.538 0-.4.01-.816.05-1.255-1.43 1.97-3 3.73-4.72 5.28-3.746 3.372-7.63 5.06-11.666 5.06-2.65 0-4.724-.766-6.22-2.295-1.5-1.53-2.25-3.793-2.25-6.793 0-.32.01-.654.026-.997-1.1 1.27-2.33 2.488-3.692 3.64-3.713 3.14-7.414 4.715-11.1 4.715-2.13 0-3.86-.56-5.186-1.69-1.324-1.127-1.99-2.64-1.99-4.545 0-1.67.82-4.33 2.466-7.96 1.64-3.636 2.46-6.12 2.46-7.444 0-2.193-1.44-4.04-4.32-5.54-1.99 4.91-4.344 9.707-7.06 14.39-1.87 3.516-4.064 6.436-6.59 8.76-3.17 2.91-6.365 4.37-9.59 4.37-2.305 0-4.08-.765-5.314-2.294-1.24-1.53-1.86-3.272-1.86-5.232-2.6 3.11-4.81 5.39-6.66 6.83-1.84 1.44-3.8 2.16-5.874 2.16-2.02 0-3.7-.66-5.057-1.99s-2.03-3.2-2.03-5.622c0-.122 0-.25.004-.373-1.75 2.04-3.638 3.88-5.66 5.53-4.868 3.95-10.21 5.923-16.028 5.923-6.16 0-10.84-2.09-14.04-6.276C4.36 61 2.76 55.967 2.76 50.08c0-7.44 1.816-14.94 5.445-22.5 3.63-7.554 8.31-13.76 14.04-18.602 5.73-4.846 11.476-7.27 17.236-7.27 5.99 0 8.99 2.626 8.99 7.876 0 3.75-1.15 7.82-3.45 12.203-2.3 4.385-4.69 6.577-7.17 6.577-1.44 0-2.62-.89-3.54-2.68 2.19-2.42 4.31-5.31 6.35-8.65 2.05-3.34 3.07-6.055 3.07-8.13 0-2.25-1.29-3.377-3.89-3.377-4.03.006-8.32 2.458-12.87 7.36-4.55 4.906-8.32 10.935-11.32 18.088-2.99 7.155-4.49 13.79-4.49 19.905 0 4.616 1.04 8.51 3.11 11.683s5.21 4.76 9.42 4.76c4.5 0 9-1.82 13.52-5.452 2.86-2.29 5.3-4.88 7.32-7.75.58-1.56 1.35-3.19 2.32-4.88 2.37-4.1 5.49-7.61 9.38-10.56 3.88-2.94 7.73-4.41 11.53-4.41 2.537 0 4.65.65 6.35 1.95 1.7 1.3 2.55 2.96 2.55 4.98 0 2.66-1.64 4.04-4.923 4.16 2.07.64 3.11 1.47 3.11 2.51 0 .69-.82 2.44-2.465 5.24-1.64 2.8-2.46 4.89-2.46 6.28 0 2.075.865 3.11 2.593 3.11 1.61 0 3.67-1.123 6.175-3.373 1.95-1.757 3.864-4.2 5.73-7.327z"/></svg>
